<?xml version="1.0" encoding="utf-8"?>
<!-- Generator: Adobe Illustrator 20.0.0, SVG Export Plug-In . SVG Version: 6.00 Build 0)  -->
<svg version="1.1" id="Layer_1" xmlns="http://www.w3.org/2000/svg" xmlns:xlink="http://www.w3.org/1999/xlink" x="0px" y="0px"
	 viewBox="0 0 60 60" style="enable-background:new 0 0 60 60;" xml:space="preserve">
<g>
	<linearGradient id="SVGID_1_" gradientUnits="userSpaceOnUse" x1="30" y1="12.4962" x2="30" y2="47.5037">
		<stop  offset="0" style="stop-color:#0094DE"/>
		<stop  offset="1" style="stop-color:#006699"/>
	</linearGradient>
	<path style="fill:url(#SVGID_1_);" d="M29.9997,12.4962c-8.2847,0-15.0005,6.5618-15.0005,14.6561
		c0,4.7398,2.5806,8.3838,5.8765,11.6299l9.2194,8.7215v-5.6979c8.2409-0.0509,14.9057-6.5908,14.9057-14.6535
		C45.0008,19.058,38.2845,12.4962,29.9997,12.4962z M38.6198,30.3434c-0.4911,1.1072-1.1607,2.0778-2.0077,2.9141
		c-0.8469,0.8369-1.8428,1.4999-2.983,1.9881c-1.1423,0.4882-2.3639,0.7321-3.667,0.7321c-1.32,0-2.5506-0.2438-3.6929-0.7321
		c-1.1419-0.4882-2.1325-1.1461-2.97-1.9734c-0.8398-0.8275-1.5045-1.8003-1.9951-2.9162c-0.4911-1.114-0.7346-2.3009-0.7346-3.5548
		c0-1.2555,0.2435-2.4404,0.7346-3.5564c0.4906-1.1159,1.1553-2.0866,1.9951-2.9162c0.8375-0.8274,1.8281-1.4853,2.97-1.9735
		c1.1423-0.4882,2.3729-0.732,3.6929-0.732c1.3031,0,2.5247,0.2438,3.667,0.732c1.1402,0.4882,2.1361,1.1513,2.983,1.9876
		c0.847,0.8368,1.5166,1.8074,2.0077,2.9146c0.4901,1.1071,0.7363,2.2884,0.7363,3.5439
		C39.3561,28.0551,39.1099,29.2363,38.6198,30.3434z"/>
	<linearGradient id="SVGID_2_" gradientUnits="userSpaceOnUse" x1="30.1443" y1="22.0297" x2="30.1443" y2="32.0513">
		<stop  offset="0" style="stop-color:#0094DE"/>
		<stop  offset="1" style="stop-color:#006699"/>
	</linearGradient>
	<path style="fill:url(#SVGID_2_);" d="M30.177,22.0297c-1.4937,0-2.6621,0.51-3.701,1.4672
		c-0.9741,1.022-1.4279,2.1722-1.4929,3.5755c0,1.4687,0.4539,2.6184,1.3631,3.5751c0.9736,0.9571,2.2068,1.4038,3.6361,1.4038
		c1.4279,0,2.6612-0.4467,3.7001-1.4038c1.0385-0.9567,1.6231-2.1064,1.6231-3.5751c0-1.4033-0.5197-2.5535-1.5582-3.5755
		C32.7733,22.5397,31.6694,22.0297,30.177,22.0297z"/>
</g>
</svg>
